HIERARCHY
ROOT Hips
{
	OFFSET 0.00000 0.00000 0.00000
	CHANNELS 6 Xposition Yposition Zposition Zrotation Yrotation Xrotation 
	JOINT LHipJoint
	{
		OFFSET 0 0 0
		CHANNELS 3 Zrotation Yrotation Xrotation
		JOINT LeftUpLeg
		{
			OFFSET 1.81638 -1.86202 0.89635
			CHANNELS 3 Zrotation Yrotation Xrotation
			JOINT LeftLeg
			{
				OFFSET 2.63464 -7.23861 0.00000
				CHANNELS 3 Zrotation Yrotation Xrotation
				JOINT LeftFoot
				{
					OFFSET 2.45871 -6.75336 0.00000
					CHANNELS 3 Zrotation Yrotation Xrotation
					JOINT LeftToeBase
					{
						OFFSET 0.34235 -0.94059 2.20020
						CHANNELS 3 Zrotation Yrotation Xrotation
						End Site
						{
							OFFSET 0.00000 -0.00000 1.18611
						}
					}
				}
			}
		}
	}
	JOINT RHipJoint
	{
		OFFSET 0 0 0
		CHANNELS 3 Zrotation Yrotation Xrotation
		JOINT RightUpLeg
		{
			OFFSET -1.84405 -1.86203 0.89635
			CHANNELS 3 Zrotation Yrotation Xrotation
			JOINT RightLeg
			{
				OFFSET -2.71067 -7.44751 0.00000
				CHANNELS 3 Zrotation Yrotation Xrotation
				JOINT RightFoot
				{
					OFFSET -2.47159 -6.79060 0.00000
					CHANNELS 3 Zrotation Yrotation Xrotation
					JOINT RightToeBase
					{
						OFFSET -0.26223 -0.72048 2.36007
						CHANNELS 3 Zrotation Yrotation Xrotation
						End Site
						{
							OFFSET -0.00000 -0.00000 1.23343
						}
					}
				}
			}
		}
	}
	JOINT LowerBack
	{
		OFFSET 0 0 0
		CHANNELS 3 Zrotation Yrotation Xrotation
		JOINT Spine
		{
			OFFSET 0.02089 1.99248 -0.22512
			CHANNELS 3 Zrotation Yrotation Xrotation
			JOINT Spine1
			{
				OFFSET 0.01476 2.01356 -0.03079
				CHANNELS 3 Zrotation Yrotation Xrotation
				JOINT Neck
				{
					OFFSET 0 0 0
					CHANNELS 3 Zrotation Yrotation Xrotation
					JOINT Neck1
					{
						OFFSET 0.04846 1.65098 0.06663
						CHANNELS 3 Zrotation Yrotation Xrotation
						JOINT Head
						{
							OFFSET -0.06061 1.60634 -0.07565
							CHANNELS 3 Zrotation Yrotation Xrotation
							End Site
							{
								OFFSET -0.02954 1.73562 -0.03642
							}
						}
					}
				}
				JOINT LeftShoulder
				{
					OFFSET 0 0 0
					CHANNELS 3 Zrotation Yrotation Xrotation
					JOINT LeftArm
					{
						OFFSET 3.45234 1.47051 -0.06993
						CHANNELS 3 Zrotation Yrotation Xrotation
						JOINT LeftForeArm
						{
							OFFSET 5.49313 -0.00000 0.00000
							CHANNELS 3 Zrotation Yrotation Xrotation
							JOINT LeftHand
							{
								OFFSET 3.29037 -0.00000 0.00000
								CHANNELS 3 Zrotation Yrotation Xrotation
								JOINT LeftFingerBase
								{
									OFFSET 0 0 0
									CHANNELS 3 Zrotation Yrotation Xrotation
									JOINT LeftHandIndex1
									{
										OFFSET 0.72966 -0.00000 0.00000
										CHANNELS 3 Zrotation Yrotation Xrotation
										End Site
										{
											OFFSET 0.58827 -0.00000 0.00000
										}
									}
								}
								JOINT LThumb
								{
									OFFSET 0 0 0
									CHANNELS 3 Zrotation Yrotation Xrotation
									End Site
									{
										OFFSET 0.59725 -0.00000 0.59725
									}
								}
							}
						}
					}
				}
				JOINT RightShoulder
				{
					OFFSET 0 0 0
					CHANNELS 3 Zrotation Yrotation Xrotation
					JOINT RightArm
					{
						OFFSET -3.41935 1.44327 0.20453
						CHANNELS 3 Zrotation Yrotation Xrotation
						JOINT RightForeArm
						{
							OFFSET -5.23684 -0.00000 0.00000
							CHANNELS 3 Zrotation Yrotation Xrotation
							JOINT RightHand
							{
								OFFSET -3.38251 -0.00000 0.00000
								CHANNELS 3 Zrotation Yrotation Xrotation
								JOINT RightFingerBase
								{
									OFFSET 0 0 0
									CHANNELS 3 Zrotation Yrotation Xrotation
									JOINT RightHandIndex1
									{
										OFFSET -0.69145 -0.00000 0.00000
										CHANNELS 3 Zrotation Yrotation Xrotation
										End Site
										{
											OFFSET -0.55747 -0.00000 0.00000
										}
									}
								}
								JOINT RThumb
								{
									OFFSET 0 0 0
									CHANNELS 3 Zrotation Yrotation Xrotation
									End Site
									{
										OFFSET -0.56598 -0.00000 0.56598
									}
								}
							}
						}
					}
				}
			}
		}
	}
}
MOTION
Frames: 13
Frame Time: .0083333
-31.2135 17.7069 -3.0161 -148.1150 77.6733 -153.9530 0.0000 0.0000 0.0000 -7.1691 -14.6034 -1.0944 1.9033 8.6616 24.7425 1.2398 -10.7567 -20.1735 0.3524 3.8140 10.5538 0.0000 0.0000 0.0000 26.0854 0.6333 12.4584 -0.0522 -1.4745 4.0556 0.7920 -18.3336 -17.3004 -0.0048 0.4493 -1.2347 1.4013 0.8837 12.0910 1.2955 1.7948 8.2554 0.3830 1.1343 1.8618 1.4758 -2.8978 -8.1791 3.3392 -3.9414 -1.5116 0.6605 -1.8772 0.9336 0.0000 0.0000 0.0000 -62.5816 11.2969 7.4111 24.9009 -36.1025 -8.2314 -0.0000 -0.0000 5.3505 7.1734 -0.3790 -0.0477 -7.1250 0.0000 -0.0000 -15.0902 29.4244 5.9174 0.0000 0.0000 0.0000 53.5087 -11.8136 4.8308 -30.5576 41.3666 -11.7764 0.0000 -0.0000 -14.0696 -18.5936 -21.9166 7.1571 7.1250 -0.0000 -0.0000 10.5542 -52.6748 -2.0114
-31.2289 17.7075 -3.0078 -147.1090 77.9819 -153.0090 0.0000 0.0000 0.0000 -7.1243 -14.4719 -0.9380 1.8870 8.6267 24.6343 1.2521 -10.4853 -20.2290 0.3406 3.7505 10.3758 0.0000 0.0000 0.0000 26.1860 1.0502 12.3428 -0.0632 -1.6226 4.4637 0.7641 -18.2700 -17.5835 -0.0014 0.2451 -0.6735 1.2711 0.8893 12.1082 1.2442 1.7864 8.2372 0.4025 1.1242 1.8311 1.5053 -2.7326 -8.2450 3.4267 -3.7276 -1.4506 0.6886 -1.7666 0.9638 0.0000 0.0000 0.0000 -62.1096 9.2854 11.6127 25.3520 -36.5616 -8.4987 -0.0000 -0.0000 4.8517 7.4129 -0.5798 -0.0754 -7.1250 0.0000 -0.0000 -14.8782 29.2331 5.8992 0.0000 0.0000 0.0000 52.8120 -8.9305 9.2325 -31.9147 42.4791 -12.6832 0.0000 -0.0000 -14.0525 -18.4835 -21.6215 7.0218 7.1250 -0.0000 -0.0000 10.5502 -52.3563 -1.9278
-31.2437 17.7076 -3.0004 -145.9400 78.3187 -151.9290 0.0000 0.0000 0.0000 -7.0859 -14.3089 -0.7428 1.8709 8.5919 24.5268 1.2673 -10.2089 -20.3097 0.3317 3.7014 10.2380 0.0000 0.0000 0.0000 26.2862 1.4788 12.3018 -0.0730 -1.7430 4.7958 0.7395 -18.2224 -17.8436 -0.0000 0.0135 -0.0370 1.1313 0.8846 12.1242 1.2135 1.7638 8.2273 0.4506 1.1065 1.8089 1.5040 -2.5500 -8.2891 3.5115 -3.4876 -1.3923 0.7222 -1.6434 0.9897 0.0000 -0.0000 0.0000 -61.7642 7.2381 15.8114 25.8434 -37.0537 -8.7931 -0.0000 -0.0000 4.2816 7.5985 -0.6999 -0.0934 -7.1250 0.0000 -0.0000 -14.7197 29.1190 5.8738 0.0000 -0.0000 0.0000 52.1059 -5.9289 13.5481 -33.3757 43.6169 -13.6806 0.0000 -0.0000 -14.0954 -18.4367 -21.4153 6.9399 7.1250 -0.0000 -0.0000 10.5183 -52.1390 -1.8656
-31.2579 17.7070 -2.9941 -144.5390 78.6789 -150.6440 0.0000 0.0000 0.0000 -7.0440 -14.1168 -0.5096 1.8556 8.5585 24.4238 1.2859 -9.9214 -20.4192 0.3249 3.6635 10.1318 0.0000 0.0000 0.0000 26.3971 1.9211 12.3350 -0.0811 -1.8371 5.0557 0.7177 -18.1858 -18.0822 -0.0014 -0.2450 0.6732 0.9961 0.8753 12.1645 1.2050 1.7353 8.2013 0.5188 1.0849 1.7561 1.4789 -2.3537 -8.2647 3.5886 -3.2264 -1.3377 0.7592 -1.5108 1.0025 -0.0000 0.0000 0.0000 -61.5441 5.1724 19.9841 26.3793 -37.5808 -9.1180 -0.0000 -0.0000 3.6260 7.7156 -0.7200 -0.0975 -7.1250 0.0000 -0.0000 -14.6276 29.1012 5.8411 -0.0000 0.0000 0.0000 51.4186 -2.8372 17.7365 -34.9021 44.7421 -14.7444 0.0000 -0.0000 -14.1791 -18.4581 -21.2736 6.9051 7.1250 -0.0000 -0.0000 10.4440 -51.9990 -1.8161
-31.2716 17.7059 -2.9890 -142.9000 79.0577 -149.1410 0.0000 0.0000 0.0000 -7.0013 -13.9069 -0.2442 1.8415 8.5278 24.3292 1.3086 -9.6275 -20.5625 0.3195 3.6333 10.0473 0.0000 0.0000 0.0000 26.5155 2.3768 12.4325 -0.0874 -1.9064 5.2470 0.6984 -18.1569 -18.2967 -0.0063 -0.5140 1.4124 0.8783 0.8655 12.1389 1.2091 1.7089 8.2251 0.5929 1.0664 1.7918 1.4643 -2.1488 -8.2201 3.6475 -2.9515 -1.3324 0.7896 -1.3725 0.9951 -0.0000 -0.0000 0.0000 -61.4410 2.9645 24.0402 26.9411 -38.1230 -9.4628 -0.0000 -0.0000 2.8578 7.7360 -0.6517 -0.0885 -7.1250 0.0000 -0.0000 -14.6217 29.1682 5.8145 -0.0000 -0.0000 0.0000 50.7958 0.4219 21.6866 -36.4400 45.8134 -15.8372 0.0000 -0.0000 -14.2650 -18.5179 -21.2273 6.9146 7.1250 -0.0000 -0.0000 10.3676 -51.9624 -1.7932
-31.2851 17.7042 -2.9849 -141.0100 79.4452 -147.4000 0.0000 0.0000 0.0000 -6.9539 -13.6825 0.0402 1.8289 8.5002 24.2440 1.3346 -9.3253 -20.7341 0.3148 3.6068 9.9729 0.0000 0.0000 0.0000 26.6456 2.8526 12.5804 -0.0920 -1.9566 5.3856 0.6824 -18.1420 -18.4906 -0.0148 -0.7848 2.1567 0.7869 0.8639 12.1102 1.2200 1.6962 8.2552 0.6581 1.0558 1.8363 1.4684 -1.9440 -8.1605 3.6919 -2.6776 -1.3299 0.8123 -1.2355 0.9834 0.0000 0.0000 0.0000 -61.4431 0.6728 28.0101 27.5525 -38.7010 -9.8426 -0.0000 -0.0000 1.9817 7.6940 -0.3797 -0.0513 -7.1250 0.0000 -0.0000 -14.6924 29.4330 5.7484 0.0000 0.0000 0.0000 50.2697 3.7691 25.3947 -37.9563 46.8114 -16.9337 0.0000 -0.0000 -14.3396 -18.6242 -21.3048 6.9808 7.1250 -0.0000 -0.0000 10.2912 -52.0596 -1.8044
-31.2985 17.7018 -2.9817 -138.8550 79.8307 -145.4120 0.0000 0.0000 0.0000 -6.9002 -13.4452 0.3451 1.8178 8.4757 24.1685 1.3627 -9.0224 -20.9260 0.3102 3.5809 9.9004 0.0000 0.0000 0.0000 26.7856 3.3232 12.7657 -0.0956 -1.9939 5.4888 0.6680 -18.1230 -18.6499 -0.0261 -1.0424 2.8654 0.7354 0.8734 12.0923 1.2252 1.7025 8.2856 0.6929 1.0566 1.8765 1.5290 -1.7425 -8.0720 3.7172 -2.4125 -1.3260 0.8193 -1.1037 0.9659 0.0000 0.0000 0.0000 -61.5302 -1.6771 31.8772 28.2326 -39.3295 -10.2708 -0.0000 -0.0000 1.0187 7.6346 0.0032 0.0004 -7.1250 0.0000 -0.0000 -14.7937 29.8056 5.6544 0.0000 0.0000 0.0000 49.8857 7.1602 28.8514 -39.4231 47.7244 -18.0112 0.0000 -0.0000 -14.4082 -18.7490 -21.4595 7.0787 7.1250 -0.0000 -0.0000 10.2253 -52.2385 -1.8378
-31.3119 17.6989 -2.9793 -136.5070 80.2051 -143.2390 0.0000 0.0000 0.0000 -6.8495 -13.2027 0.6556 1.8081 8.4545 24.1032 1.3919 -8.7185 -21.1292 0.3040 3.5449 9.7997 0.0000 0.0000 0.0000 26.9271 3.7907 12.9753 -0.0983 -2.0223 5.5673 0.6527 -18.0974 -18.8055 -0.0400 -1.2903 3.5479 0.7175 0.8987 12.0792 1.2154 1.7329 8.3135 0.6906 1.0710 1.9127 1.6649 -1.5501 -7.9548 3.7305 -2.1648 -1.3188 0.8093 -0.9812 0.9435 -0.0000 -0.0000 0.0000 -61.6928 -4.0654 35.6195 28.9975 -40.0184 -10.7591 -0.0000 -0.0000 0.0214 7.5252 0.4285 0.0566 -7.1250 0.0000 -0.0000 -14.9416 30.2181 5.5619 -0.0000 -0.0000 0.0000 49.6691 10.5338 32.0539 -40.8444 48.5623 -19.0699 0.0000 -0.0000 -14.4752 -18.8897 -21.6330 7.1897 7.1250 -0.0000 -0.0000 10.1507 -52.4396 -1.8744
-31.3250 17.6954 -2.9774 -133.9710 80.5590 -140.8860 0.0000 0.0000 0.0000 -6.7978 -12.9634 0.9732 1.8001 8.4366 24.0484 1.4211 -8.4129 -21.3367 0.2974 3.5066 9.6924 0.0000 0.0000 0.0000 27.0741 4.2491 13.2016 -0.1007 -2.0462 5.6335 0.6399 -18.0754 -18.9329 -0.0549 -1.5117 4.1578 0.7423 0.9377 12.0798 1.1800 1.7855 8.3361 0.6351 1.0990 1.9378 1.8835 -1.3697 -7.8133 3.7479 -1.9392 -1.3014 0.7858 -0.8698 0.9197 -0.0000 -0.0000 0.0000 -61.9217 -6.4554 39.1906 29.8381 -40.7542 -11.3038 -0.0000 0.0000 -0.9151 7.4336 0.7344 0.0958 -7.1250 0.0000 -0.0000 -15.0592 30.5138 5.4980 -0.0000 -0.0000 0.0000 49.6426 13.8398 35.0133 -42.2274 49.3355 -20.1129 0.0000 -0.0000 -14.5174 -19.0244 -21.7942 7.2951 7.1250 -0.0000 -0.0000 10.0775 -52.6274 -1.9073
-31.3378 17.6914 -2.9759 -131.2920 80.8815 -138.3980 0.0000 0.0000 0.0000 -6.7446 -12.7327 1.2954 1.7934 8.4218 24.0027 1.4496 -8.1173 -21.5431 0.2901 3.4636 9.5721 0.0000 0.0000 0.0000 27.2261 4.6880 13.4368 -0.1030 -2.0693 5.6972 0.6282 -18.0529 -19.0430 -0.0703 -1.7101 4.7051 0.8065 0.9865 12.0999 1.1164 1.8551 8.3531 0.5260 1.1377 1.9486 2.1883 -1.2031 -7.6567 3.7755 -1.7384 -1.2667 0.7502 -0.7703 0.8985 -0.0000 -0.0000 0.0000 -62.2185 -8.8123 42.5735 30.7779 -41.5509 -11.9223 -0.0000 0.0000 -1.7655 7.3949 0.8541 0.1109 -7.1250 0.0000 -0.0000 -15.1078 30.6295 5.4735 -0.0000 -0.0000 0.0000 49.8134 17.0335 37.7517 -43.6027 50.0653 -21.1618 0.0000 -0.0000 -14.5615 -19.1626 -21.8933 7.3831 7.1250 -0.0000 -0.0000 9.9771 -52.7531 -1.9188
-31.3498 17.6869 -2.9746 -128.5110 81.1714 -135.8150 0.0000 0.0000 0.0000 -6.6927 -12.5081 1.6171 1.7881 8.4099 23.9662 1.4766 -7.8287 -21.7412 0.2824 3.4176 9.4437 0.0000 0.0000 0.0000 27.3800 5.1043 13.6788 -0.1052 -2.0912 5.7577 0.6185 -18.0336 -19.1323 -0.0852 -1.8825 5.1811 0.9007 1.0432 12.1367 1.0258 1.9386 8.3669 0.3700 1.1855 1.9494 2.5573 -1.0553 -7.5011 3.8283 -1.5672 -1.2109 0.7106 -0.6845 0.8847 0.0000 0.0000 0.0000 -62.5913 -11.1140 45.7462 31.8085 -42.3940 -12.6115 -0.0000 0.0000 -2.4927 7.3419 0.9647 0.1243 -7.1250 0.0000 -0.0000 -15.1662 30.7357 5.4559 0.0000 0.0000 0.0000 50.1677 20.0770 40.2978 -45.0182 50.7774 -22.2528 0.0000 -0.0000 -14.6267 -19.3221 -21.9434 7.4647 7.1250 -0.0000 -0.0000 9.8365 -52.8328 -1.9106
-31.3607 17.6822 -2.9733 -125.6900 81.4245 -133.1920 0.0000 0.0000 0.0000 -6.6424 -12.3008 1.9344 1.7841 8.4012 23.9394 1.5014 -7.5420 -21.9267 0.2744 3.3696 9.3096 0.0000 0.0000 0.0000 27.5337 5.4920 13.9221 -0.1071 -2.1099 5.8094 0.6108 -18.0182 -19.2027 -0.0996 -2.0350 5.6023 1.0135 1.1029 12.1900 0.9126 2.0282 8.3748 0.1790 1.2376 1.9371 2.9686 -0.9275 -7.3493 3.9151 -1.4252 -1.1357 0.6737 -0.6117 0.8784 -0.0000 -0.0000 0.0000 -63.0479 -13.3301 48.7064 32.9407 -43.2844 -13.3814 -0.0000 0.0000 -3.1424 7.2380 1.1442 0.1453 -7.1250 0.0000 -0.0000 -15.2752 30.9075 5.4324 -0.0000 -0.0000 0.0000 50.6876 22.9380 42.6727 -46.5174 51.4906 -23.4202 0.0000 -0.0000 -14.6882 -19.4645 -21.9318 7.5198 7.1250 -0.0000 -0.0000 9.6895 -52.8468 -1.8850
-31.3699 17.6776 -2.9716 -122.8850 81.6434 -130.5700 0.0000 0.0000 0.0000 -6.5936 -12.1087 2.2347 1.7813 8.3948 23.9197 1.5240 -7.2673 -22.0983 0.2669 3.3236 9.1810 0.0000 0.0000 0.0000 27.6832 5.8543 14.1554 -0.1088 -2.1265 5.8554 0.6037 -18.0020 -19.2633 -0.1136 -2.1727 5.9831 1.1278 1.1654 12.2479 0.7834 2.1216 8.3754 -0.0303 1.2918 1.9162 3.3981 -0.8234 -7.2079 4.0392 -1.3157 -1.0429 0.6444 -0.5534 0.8802 -0.0000 -0.0000 0.0000 -63.5915 -15.4439 51.4687 34.1672 -44.2082 -14.2295 -0.0000 0.0000 -3.7786 7.1026 1.3123 0.1635 -7.1250 0.0000 -0.0000 -15.4074 31.0671 5.4213 -0.0000 -0.0000 0.0000 51.3510 25.5872 44.8978 -48.1571 52.2246 -24.7098 0.0000 -0.0000 -14.7363 -19.5703 -21.8892 7.5497 7.1250 -0.0000 -0.0000 9.5673 -52.8225 -1.8551
